<svg xmlns="http://www.w3.org/2000/svg" xmlns:xlink="http://www.w3.org/1999/xlink" version="1.1" x="0px" y="0px" viewBox="0 0 100 100" enable-background="new 0 0 100 100" xml:space="preserve"><path fill="#000000" d="M47.9,19.2c-15.6,0-28.2,12.6-28.2,28.2s12.6,28.2,28.2,28.2S76.1,63,76.1,47.4S63.5,19.2,47.9,19.2z   M47.9,67.1c-10.8,0-19.6-8.8-19.6-19.6S37,27.8,47.9,27.8s19.6,8.8,19.6,19.6S58.7,67.1,47.9,67.1z"></path><path fill="#000000" d="M80.3,90.3c-1.3,0-2.7-0.5-3.7-1.6L59.7,70.4c-1.9-2-1.8-5.2,0.3-7.1c2-1.9,5.2-1.8,7.1,0.3L84,81.9  c1.9,2,1.8,5.2-0.3,7.1C82.8,89.8,81.6,90.3,80.3,90.3z"></path></svg>